<?xml version="1.0" encoding="utf-8"?>
<!-- Generated by IcoMoon.io -->
<!DOCTYPE svg PUBLIC "-//W3C//DTD SVG 1.1//EN" "http://www.w3.org/Graphics/SVG/1.1/DTD/svg11.dtd">
<svg version="1.1" xmlns="http://www.w3.org/2000/svg" xmlns:xlink="http://www.w3.org/1999/xlink" width="80" height="32" viewBox="0 0 80 32">
<g transform="translate(0 0)">
	<path d="M8.96 27.869c-0.429 0.434-0.429 1.133 0 1.566s1.122 0.434 1.55 0l12.528-12.651c0.429-0.434 0.429-1.134 0-1.566l-12.528-12.653c-0.429-0.434-1.122-0.434-1.55 0s-0.429 1.133 0 1.566l11.424 11.869-11.424 11.869z" fill="#000000" />
</g>
<g transform="translate(48 0)">
	<path d="M0 4v26h32v-26h-32zM30 28h-28v-22h28v22zM22 11c0-1.657 1.343-3 3-3s3 1.343 3 3c0 1.657-1.343 3-3 3-1.657 0-3-1.343-3-3zM28 26h-24l6-16 8 10 4-3z" fill="#000000" />
</g>
</svg>
